<?xml version="1.0" encoding="utf-8"?>
<!-- Generator: Adobe Illustrator 16.0.0, SVG Export Plug-In . SVG Version: 6.00 Build 0)  -->
<!DOCTYPE svg PUBLIC "-//W3C//DTD SVG 1.1//EN" "http://www.w3.org/Graphics/SVG/1.1/DTD/svg11.dtd">
<svg version="1.1" id="Layer_1" xmlns="http://www.w3.org/2000/svg" xmlns:xlink="http://www.w3.org/1999/xlink" x="0px" y="0px"
	 width="500px" height="122.898px" viewBox="0 0 500 122.898" enable-background="new 0 0 500 122.898" xml:space="preserve">
<path fill-rule="evenodd" clip-rule="evenodd" fill="#CC0033" d="M110.375,69.622c-1.239-1.241-1.951-2.487-3.282-2.484
	c-1.24,0-8.604,5.593-20.409,5.593c-18.37,0-19.879-10.569-19.879-22.643V26.639c0-10.835,0-11.279-3.459-11.633l-3.196-0.267
	v-1.909h21.566v1.909l-3.194,0.267c-3.461,0.354-3.461,0.797-3.461,11.633v22.025c0,12.699,2.13,21.136,15.883,21.136
	c9.23,0,14.733-5.505,16.063-7.104V26.639c0-10.834,0-11.278-3.464-11.633l-3.191-0.267v-1.909h21.563v1.909l-3.196,0.267
	c-3.459,0.355-3.459,0.799-3.459,11.633v44.76l-2.662,0.799L110.375,69.622z M136.368,71.399h24.582v-1.914l-3.197-0.262
	c-4.968-0.355-4.968-0.798-4.968-11.633V15.315h4.613c12.513,0,12.689,1.333,14.642,11.633h2.129c0-0.355-0.442-12.164-0.797-14.115
	h-49.428c-0.357,1.952-0.798,13.76-0.798,14.115h2.128c1.95-10.3,2.127-11.633,14.643-11.633h4.615V57.59
	c0,10.835,0,11.278-4.88,11.633l-3.284,0.262V71.399z M228.8,59.717c0-8.638,0-9.081,1.686-9.438l3.195-0.269v-1.907h-22.542v1.907
	l3.197,0.269c6.208,0.357,6.208,0.799,6.208,11.667v6.7c-3.105,0.797-7.184,1.152-10.38,1.152
	c-17.391,0-25.111-14.059-25.111-29.192c0-16.593,9.14-26.178,23.688-26.178c15.177,0,16.33,10.826,17.22,14.376l2.395-0.532
	c-0.392-4.377-0.859-9.349-1.421-13.134c-2.307-1.418-9.049-3.641-18.1-3.641c-14.024,0-33.1,7.102-33.1,30.795
	c0,22.614,15.971,30.437,33.81,30.437c9.493,0,16.284-2.553,19.425-3.539C228.97,69.191,228.8,62.39,228.8,59.717 M239.135,71.399
	h40.644c1.161-4.802,2.148-9.229,2.927-14.733l-2.216-0.355c-1.778,7.281-2.663,12.603-16.797,12.603
	c-3.185,0-6.46-0.53-9.647-1.152V42.203h7.878c6.904,0,8.501,0.088,9.03,3.729l0.448,3.013h2.341V32.976h-2.341l-0.448,3.016
	c-0.529,3.639-2.126,3.726-9.03,3.726h-7.878V15.315h7.347c12.527,0,12.704,1.331,14.661,10.829l2.129-0.357
	c0-0.799-0.445-11.002-0.801-12.954h-38.247v1.907l3.196,0.265c3.459,0.355,3.459,0.801,3.459,11.645v30.92
	c0,10.854,0,11.298-3.459,11.653l-3.196,0.262V71.399z M289.659,69.487l3.196-0.266c3.46-0.355,3.46-0.797,3.46-11.643V26.647
	c0-10.842,0-11.286-3.46-11.641l-3.196-0.267v-1.909h23.163c8.42,0,20.312,1.215,20.312,14.706c0,8.265-7.365,13.155-12.249,15.462
	c1.333,2.484,4.266,8.177,6.665,12.444c3.722,6.67,7.629,11.913,9.845,13.161c0.89,0.532,2.484,0.883,4.438,0.883v1.912h-6.833
	c-5.855,0-9.935-3.956-12.6-8.841l-3.548-6.847c-2.308-4.358-4.341-7.736-5.496-8.714c-1.425-1.158-3.639-1.158-5.502-1.158h-3.281
	v11.738c0,10.846,0,11.288,3.366,11.643l3.197,0.266v1.912h-21.477V69.487z M304.572,43.356h5.055c7.452,0,14.19-3.994,14.19-14.019
	c0-10.383-6.824-13.578-13.746-13.578c-1.86,0-3.726,0.355-5.499,0.709V43.356z M361.17,35.013
	c-4.793-2.834-8.608-5.676-8.608-10.913c0-5.944,4.521-9.671,9.674-9.671c10.023,0,11.445,7.723,12.327,12.156h2.223
	c-0.209-2.583-0.429-9.089-0.89-12.247c-2.307-1.417-6.741-2.84-12.241-2.84c-9.408,0-18.46,4.53-18.46,15.355
	c0,6.651,4.704,12.152,9.759,14.906l5.681,3.106c6.926,3.101,12.338,7.542,12.338,14.021c0,6.92-4.53,10.912-10.651,10.912
	c-12.158,0-15.439-10.555-16.416-16.948l-2.839,0.711c1.004,6.084,1.995,12.267,2.839,15.618c2.75,1.688,7.007,3.551,13.933,3.551
	c9.402,0,20.491-4.618,20.491-16.593c0-10.654-7.267-14.377-14.285-18.37L361.17,35.013z M39.75,37.588c0,0-0.079-0.409-0.107-0.756
	c7.139-3.508,12.979-9.102,12.979-17.694c0-21.229-20.375-19.076-35.47-19.079L0,0.057v1.675L3.611,2.03
	C5.75,2.252,7.045,2.514,7.644,4.607c0.75,2.621,0.546,9.399,0.546,12.094v38.036c0,2.703,0.203,9.479-0.546,12.101
	c-0.598,2.092-1.894,2.357-4.033,2.577L0,69.711v1.676h25.156v-1.676l-3.609-0.297c-2.091-0.22-3.352-0.492-3.934-2.577
	c-0.738-2.646-0.531-9.381-0.531-12.101l0.006-14.784c1.756,0,5.134-0.01,6.27,0c1.958,0,4.326-0.014,6.142,0.947
	c1.179,0.719,2.234,1.865,3.068,3.666c3.365,6.968,7.139,14.734,11.033,21.426c9.574,16.449,26.028,36.963,44.445,36.244
	l2.284-0.077l0.015-2.059l-1.501-0.007c-13.033,0.819-30.444-24.534-37.242-37.071C48.596,57.655,40.759,43.212,39.75,37.588
	 M17.102,3.894c2.344-0.467,4.708-0.931,7.11-0.931c11.642,0,18.156,7.007,18.156,18.427c0,10.499-6.42,16.136-16.926,16.136
	c-2.72,0-5.636,0.22-8.354,0.079L17.102,3.894z"/>
<path fill="#5F6A72" d="M123.187,106.917v2.705c0,1.004,0.041,1.988,0.041,2.991c0,3.564-1.661,5.47-5.388,5.47
	c-2.419,0-4.714-0.881-5.411-3.401c-0.205-0.735-0.205-1.515-0.205-2.273c0-2.992,0.041-5.983-0.062-8.954l0.124-0.144
	c0.779-0.021,1.538-0.021,2.316-0.062l0.103,0.144c-0.103,2.603-0.083,5.203-0.083,7.806c0,1.538-0.184,3.729,1.352,4.651
	c0.595,0.349,1.292,0.514,1.969,0.514c0.818,0,1.658-0.205,2.273-0.739c1.229-1.086,1.064-2.971,1.064-4.468
	c0-2.561,0-5.142-0.144-7.702l0.103-0.144c0.636-0.021,1.25-0.021,1.886-0.062l0.123,0.144
	C123.208,104.561,123.187,105.748,123.187,106.917 M141.882,117.632c-0.041-1.741-0.062-3.483-0.062-5.245
	c0-2.991,0.062-5.982,0.062-8.994l-0.124-0.144c-0.656,0.04-1.292,0.063-1.945,0.063l-0.124,0.144
	c0.205,3.952,0.246,7.928,0.349,11.883c-2.253-3.976-4.528-7.931-6.7-11.945l-0.226-0.144c-0.881,0.04-1.763,0.04-2.643,0.063
	l-0.103,0.144c0.143,1.986,0.123,4.117,0.123,6.126c0,2.704,0.02,5.408-0.103,8.112l0.123,0.144
	c0.657-0.041,1.333-0.062,1.987-0.062l0.103-0.144c-0.082-1.72-0.144-3.422-0.185-5.142l-0.205-7.028l3.237,5.777
	c1.209,2.151,2.458,4.282,3.648,6.454l0.164,0.144c0.841-0.041,1.679-0.062,2.52-0.062L141.882,117.632z M151.563,117.632
	c-0.144-2.581-0.185-5.142-0.185-7.725c0-2.172,0.062-4.344,0.103-6.515l-0.124-0.163c-0.756,0.06-1.515,0.06-2.273,0.082
	l-0.123,0.144c0.123,2.58,0.165,5.142,0.165,7.722v2.274c0,1.415-0.021,2.829-0.103,4.242l0.123,0.144
	c0.756-0.041,1.516-0.062,2.274-0.062L151.563,117.632z M166.895,110.522c0.758-2.376,1.415-4.772,2.212-7.13l-0.103-0.144
	c-0.677,0.041-1.372,0.041-2.048,0.062l-0.124,0.144c-0.615,2.13-1.148,4.304-1.761,6.433l-1.825,6.435
	c-1.189-4.302-2.397-8.604-3.504-12.929l-0.144-0.144c-0.779,0.041-1.577,0.041-2.356,0.062l-0.123,0.144
	c0.963,3.053,1.907,6.126,2.828,9.199c0.328,1.087,0.656,2.151,0.963,3.238c0.185,0.594,0.326,1.209,0.512,1.803l0.144,0.144
	c0.982-0.04,1.987-0.062,2.971-0.062l0.121-0.144C165.336,115.235,166.156,112.9,166.895,110.522 M183.479,117.632
	c0.021-0.512,0.041-1.026,0.083-1.536l-0.103-0.144c-1.741,0.062-3.504,0.104-5.265,0.104h-1.128c0-0.678-0.021-1.333-0.021-2.011
	c0-0.963,0.021-1.925,0.042-2.888h1.148c1.515,0,3.011,0.02,4.506,0.062l0.124-0.144c0.02-0.533,0.062-1.064,0.123-1.598
	l-0.123-0.144c-1.209,0.041-2.438,0.062-3.648,0.062h-2.129c0-1.455,0.02-2.909,0.041-4.364c2.048,0,4.077,0.04,6.126,0.102
	l0.144-0.144c0.021-0.532,0.062-1.064,0.123-1.597l-0.102-0.144c-2.869,0.021-5.737,0.04-8.605,0.063l-0.144,0.144
	c0.123,1.781,0.144,3.564,0.144,5.347c0,2.949,0.02,5.921-0.103,8.892l0.103,0.144c2.848-0.041,5.675-0.062,8.522-0.062
	L183.479,117.632 M200.635,117.59c-1.576-2.068-3.011-4.221-4.506-6.331c1.986-0.53,3.483-1.863,3.483-4.035
	c0-3.523-2.992-3.954-5.8-3.954h-1.25c-0.861,0-1.699,0.042-2.56,0.042l-0.125,0.144c0.166,2.744,0.207,5.49,0.207,8.234
	c0,2.009-0.021,3.997-0.082,6.004l0.123,0.144c0.756-0.041,1.495-0.062,2.253-0.062l0.124-0.144
	c-0.103-2.007-0.165-3.995-0.165-6.003c0.492,0,1.004-0.021,1.495-0.021c0.676,0.923,1.271,1.865,1.907,2.828
	c0.737,1.107,1.474,2.193,2.13,3.36l0.144,0.081c0.84-0.062,1.681-0.081,2.519-0.081L200.635,117.59z M196.722,105.75
	c0.412,0.45,0.616,1.065,0.616,1.658c0,2.255-2.397,2.563-4.118,2.563c-0.308,0-0.595-0.021-0.902-0.021
	c-0.021-0.554-0.021-1.086-0.021-1.64v-1.762c0-0.513,0-1.046,0.021-1.578c0.431-0.021,0.881-0.042,1.31-0.042
	C194.694,104.928,195.945,104.908,196.722,105.75 M209.866,118.083c2.663,0,5.306-1.353,5.306-4.362
	c0-4.918-7.131-3.955-7.131-6.947c0-1.496,1.518-2.007,2.766-2.007c1.271,0,2.274,0.348,3.381,0.961l0.185-0.102
	c0.041-0.594,0.083-1.209,0.164-1.802l-0.124-0.144c-1.209-0.452-2.375-0.677-3.667-0.677c-2.5,0-4.958,1.147-4.958,3.955
	c0,4.773,6.967,3.829,6.967,6.987c0,1.72-1.537,2.313-3.032,2.313c-1.374,0-2.479-0.349-3.566-1.188l-0.225,0.082
	c-0.041,0.635-0.082,1.249-0.144,1.885l0.062,0.144C206.996,117.796,208.574,118.083,209.866,118.083 M224.175,117.632
	c-0.144-2.581-0.184-5.142-0.184-7.725c0-2.172,0.061-4.344,0.102-6.515l-0.123-0.163c-0.758,0.06-1.518,0.06-2.276,0.082
	l-0.123,0.144c0.123,2.58,0.164,5.142,0.164,7.722v2.274c0,1.415-0.02,2.829-0.103,4.242l0.125,0.144
	c0.757-0.041,1.515-0.062,2.274-0.062L224.175,117.632z M239.937,104.928c0.02-0.512,0.041-1.024,0.102-1.535l-0.102-0.144
	c-3.34,0.063-6.701,0.063-10.041,0.063l-0.123,0.144c0,0.51-0.021,1.002-0.062,1.515l0.124,0.144
	c1.271-0.042,2.54-0.063,3.812-0.103c0.041,1.354,0.061,2.725,0.061,4.078c0,2.867,0,5.735-0.123,8.604l0.103,0.144
	c0.779-0.041,1.576-0.062,2.355-0.062l0.124-0.144c-0.124-2.212-0.144-4.424-0.144-6.638c0-1.987-0.021-3.975,0.041-5.963
	c1.25,0,2.52,0,3.77,0.04L239.937,104.928 M251.664,111.669c1.392-2.808,2.991-5.531,4.55-8.256l-0.125-0.164
	c-0.675,0.04-1.331,0.061-2.007,0.061l-0.165,0.123c-1.022,2.15-2.109,4.283-3.257,6.373c-0.451-0.984-0.984-1.927-1.454-2.89
	c-0.595-1.209-1.148-2.438-1.764-3.646l-0.144-0.104c-0.797,0.083-1.576,0.104-2.375,0.144l-0.103,0.205
	c1.577,2.746,3.052,5.512,4.508,8.318v2.089c0,1.251-0.02,2.502-0.061,3.75l0.103,0.144c0.758-0.02,1.515-0.04,2.273-0.04
	l0.103-0.144c-0.103-1.475-0.103-2.951-0.103-4.426C251.643,112.694,251.643,112.182,251.664,111.669 M270.28,122.898h1.661v-20.449
	h-1.661V122.898z M300.656,117.632c-0.041-1.741-0.062-3.483-0.062-5.245c0-2.991,0.062-5.982,0.062-8.994l-0.123-0.144
	c-0.655,0.04-1.291,0.063-1.948,0.063l-0.122,0.144c0.207,3.952,0.248,7.928,0.351,11.883c-2.256-3.976-4.53-7.931-6.7-11.945
	l-0.229-0.144c-0.879,0.04-1.76,0.04-2.64,0.063l-0.104,0.144c0.144,1.986,0.123,4.117,0.123,6.126c0,2.704,0.021,5.408-0.102,8.112
	l0.122,0.144c0.655-0.041,1.333-0.062,1.988-0.062l0.102-0.144c-0.082-1.72-0.144-3.422-0.184-5.142l-0.205-7.028l3.238,5.777
	c1.208,2.151,2.457,4.282,3.646,6.454l0.164,0.144c0.839-0.041,1.678-0.062,2.519-0.062L300.656,117.632z M316.544,117.632
	c0.021-0.512,0.042-1.026,0.083-1.536l-0.102-0.144c-1.743,0.062-3.503,0.104-5.269,0.104h-1.124c0-0.678-0.021-1.333-0.021-2.011
	c0-0.963,0.021-1.925,0.04-2.888h1.148c1.515,0,3.01,0.02,4.508,0.062l0.123-0.144c0.021-0.533,0.061-1.064,0.122-1.598
	l-0.122-0.144c-1.211,0.041-2.439,0.062-3.648,0.062h-2.131c0-1.455,0.021-2.909,0.042-4.364c2.047,0,4.076,0.04,6.126,0.102
	l0.144-0.144c0.021-0.532,0.062-1.064,0.122-1.597l-0.102-0.144c-2.868,0.021-5.737,0.04-8.607,0.063l-0.142,0.144
	c0.123,1.781,0.142,3.564,0.142,5.347c0,2.949,0.021,5.921-0.1,8.892l0.1,0.144c2.85-0.041,5.678-0.062,8.523-0.062L316.544,117.632
	 M337.8,110.051c0.49-2.233,0.921-4.468,1.618-6.659l-0.102-0.144c-0.676,0.041-1.333,0.041-2.01,0.062l-0.121,0.144
	c-0.246,1.618-0.554,3.216-0.881,4.836l-1.598,8.094l-1.622-8.626c-0.264-1.456-0.528-2.909-0.737-4.365l-0.12-0.144
	c-1.088,0.041-2.17,0.041-3.26,0.062l-0.122,0.144c-0.759,4.304-1.6,8.587-2.396,12.888c-0.821-4.301-1.702-8.625-2.438-12.949
	l-0.125-0.144c-0.778,0.041-1.556,0.041-2.336,0.062l-0.099,0.144c0.572,2.335,1.103,4.692,1.616,7.049
	c0.531,2.397,1.087,4.794,1.556,7.191l0.144,0.144c0.983-0.04,1.988-0.063,2.973-0.063l0.123-0.144
	c0.84-4.301,1.7-8.604,2.579-12.905l1.662,8.83c0.267,1.371,0.53,2.746,0.757,4.139l0.144,0.144c0.984-0.04,1.968-0.063,2.95-0.063
	l0.144-0.144c0.144-0.674,0.288-1.371,0.432-2.047C336.919,113.74,337.392,111.897,337.8,110.051 M364.578,116.158
	c0.592-0.699,0.899-1.62,0.899-2.521c0-2.316-1.662-3.402-3.829-3.482c0.386-0.125,0.756-0.205,1.123-0.39
	c1.188-0.595,1.925-1.742,1.925-3.073c0-0.8-0.243-1.537-0.775-2.133c-1.086-1.229-2.788-1.31-4.324-1.31
	c-1.457,0-2.91,0.04-4.366,0.063l-0.1,0.144c0.08,1.186,0.125,2.375,0.125,3.564v7.602c0,1.022-0.025,2.048-0.086,3.072l0.104,0.144
	l3.609-0.021h0.55C361.316,117.816,363.242,117.694,364.578,116.158 M362.159,105.955c0.182,0.286,0.287,0.717,0.287,1.042
	c0,0.492-0.164,0.984-0.451,1.375c-0.862,1.146-2.563,1.128-3.855,1.128h-0.653v-4.571c0.634-0.021,1.291-0.06,1.925-0.06
	C360.438,104.869,361.563,104.99,362.159,105.955 M359.517,111.158c1.616,0,3.563,0.369,3.563,2.377
	c0,0.553-0.122,1.045-0.452,1.495c-0.815,1.147-2.538,1.106-3.809,1.106h-0.861c-0.125,0-0.269-0.021-0.389-0.021
	c-0.063-1.638-0.083-3.257-0.083-4.896C358.165,111.198,358.838,111.158,359.517,111.158 M382.739,117.59
	c-1.578-2.068-3.01-4.221-4.508-6.331c1.988-0.53,3.483-1.863,3.483-4.035c0-3.523-2.989-3.954-5.801-3.954h-1.246
	c-0.862,0-1.701,0.042-2.563,0.042l-0.123,0.144c0.161,2.744,0.206,5.49,0.206,8.234c0,2.009-0.021,3.997-0.083,6.004l0.122,0.144
	c0.759-0.041,1.494-0.062,2.257-0.062l0.12-0.144c-0.102-2.007-0.165-3.995-0.165-6.003c0.494,0,1.004-0.021,1.498-0.021
	c0.676,0.923,1.268,1.865,1.905,2.828c0.739,1.107,1.477,2.193,2.129,3.36l0.144,0.081c0.842-0.062,1.684-0.081,2.519-0.081
	L382.739,117.59z M378.825,105.75c0.411,0.45,0.617,1.065,0.617,1.658c0,2.255-2.398,2.563-4.12,2.563
	c-0.309,0-0.596-0.021-0.902-0.021c-0.019-0.554-0.019-1.086-0.019-1.64v-1.762c0-0.513,0-1.046,0.019-1.578
	c0.43-0.021,0.881-0.042,1.311-0.042C376.795,104.928,378.046,104.908,378.825,105.75 M399.509,106.917
	c0-1.169,0.021-2.355,0.059-3.524l-0.122-0.144c-0.634,0.041-1.249,0.041-1.887,0.062l-0.098,0.144
	c0.143,2.561,0.143,5.142,0.143,7.702c0,1.497,0.162,3.382-1.067,4.468c-0.615,0.534-1.456,0.739-2.272,0.739
	c-0.679,0-1.374-0.165-1.97-0.514c-1.533-0.923-1.352-3.113-1.352-4.651c0-2.603-0.019-5.203,0.08-7.806l-0.099-0.144
	c-0.78,0.041-1.54,0.041-2.317,0.062l-0.121,0.144c0.102,2.971,0.058,5.962,0.058,8.954c0,0.759,0,1.538,0.207,2.273
	c0.697,2.521,2.99,3.401,5.409,3.401c3.731,0,5.389-1.905,5.389-5.47c0-1.003-0.039-1.987-0.039-2.991V106.917 M418.203,117.632
	c-0.039-1.741-0.061-3.483-0.061-5.245c0-2.991,0.061-5.982,0.061-8.994l-0.124-0.144c-0.654,0.04-1.291,0.063-1.945,0.063
	l-0.123,0.144c0.203,3.952,0.248,7.928,0.347,11.883c-2.25-3.976-4.526-7.931-6.7-11.945l-0.222-0.144
	c-0.881,0.04-1.764,0.04-2.643,0.063l-0.105,0.144c0.144,1.986,0.124,4.117,0.124,6.126c0,2.704,0.02,5.408-0.102,8.112l0.121,0.144
	c0.656-0.041,1.332-0.062,1.989-0.062l0.102-0.144c-0.08-1.72-0.144-3.422-0.186-5.142l-0.203-7.028l3.238,5.777
	c1.208,2.151,2.457,4.282,3.646,6.454l0.163,0.144c0.841-0.041,1.684-0.062,2.521-0.062L418.203,117.632z M428.788,118.083
	c2.661,0,5.304-1.353,5.304-4.362c0-4.918-7.131-3.955-7.131-6.947c0-1.496,1.521-2.007,2.767-2.007
	c1.272,0,2.275,0.348,3.385,0.961l0.182-0.102c0.042-0.594,0.08-1.209,0.164-1.802l-0.122-0.144
	c-1.208-0.452-2.377-0.677-3.669-0.677c-2.499,0-4.956,1.147-4.956,3.955c0,4.773,6.965,3.829,6.965,6.987
	c0,1.72-1.536,2.313-3.031,2.313c-1.371,0-2.48-0.349-3.566-1.188l-0.224,0.082c-0.042,0.635-0.085,1.249-0.144,1.885l0.059,0.144
	C425.919,117.796,427.497,118.083,428.788,118.083 M455.348,110.051c0.494-2.233,0.924-4.468,1.618-6.659l-0.102-0.144
	c-0.676,0.041-1.33,0.041-2.009,0.062l-0.123,0.144c-0.246,1.618-0.553,3.216-0.88,4.836l-1.598,8.094l-1.618-8.626
	c-0.27-1.456-0.536-2.909-0.739-4.365l-0.122-0.144c-1.086,0.041-2.174,0.041-3.257,0.062l-0.125,0.144
	c-0.756,4.304-1.597,8.587-2.398,12.888c-0.817-4.301-1.697-8.625-2.437-12.949l-0.121-0.144c-0.781,0.041-1.559,0.041-2.336,0.062
	l-0.105,0.144c0.574,2.335,1.109,4.692,1.619,7.049c0.535,2.397,1.087,4.794,1.56,7.191l0.144,0.144
	c0.984-0.04,1.988-0.063,2.97-0.063l0.121-0.144c0.841-4.301,1.702-8.604,2.585-12.905l1.658,8.83
	c0.267,1.371,0.532,2.746,0.757,4.139l0.144,0.144c0.982-0.04,1.967-0.063,2.951-0.063l0.144-0.144
	c0.144-0.674,0.287-1.371,0.431-2.047C454.467,113.74,454.938,111.897,455.348,110.051 M465.132,117.632
	c-0.144-2.581-0.182-5.142-0.182-7.725c0-2.172,0.061-4.344,0.102-6.515l-0.121-0.163c-0.758,0.06-1.521,0.06-2.275,0.082
	l-0.124,0.144c0.124,2.58,0.162,5.142,0.162,7.722v2.274c0,1.415-0.019,2.829-0.099,4.242l0.123,0.144
	c0.756-0.041,1.516-0.062,2.271-0.062L465.132,117.632z M482.84,117.039c0.06-0.678,0.083-1.354,0.165-2.03l-0.144-0.08
	c-1.293,0.797-2.214,1.249-3.771,1.249c-3.399,0-4.939-2.521-4.939-5.695c0-3.196,1.6-5.676,5.041-5.676
	c1.253,0,2.232,0.287,3.277,0.921l0.167-0.081c0.06-0.614,0.102-1.208,0.185-1.824l-0.065-0.163
	c-1.246-0.45-2.415-0.655-3.746-0.655c-0.944,0-1.904,0.081-2.786,0.389c-3.095,1.046-4.488,4.017-4.488,7.13
	c0,4.426,2.541,7.561,7.131,7.561c1.411,0,2.622-0.285,3.872-0.9L482.84,117.039 M500,117.55c-0.266-0.309-0.532-0.635-0.801-0.964
	c-1.8-2.232-3.521-4.506-5.224-6.8c1.722-2.152,3.483-4.284,5.266-6.373l-0.12-0.164c-0.781,0.04-1.561,0.04-2.338,0.063
	c-0.043,0.04-0.123,0.081-0.165,0.12c-0.245,0.269-0.615,0.86-0.857,1.189c-0.516,0.677-1.05,1.333-1.578,1.986
	c-0.883,1.108-1.762,2.234-2.668,3.322c0-2.174,0.023-4.366,0.105-6.537l-0.105-0.144c-0.757,0.04-1.533,0.04-2.29,0.063
	l-0.125,0.144c0.125,1.638,0.163,3.296,0.163,4.937c0,3.095,0.04,6.207-0.083,9.302l0.104,0.144
	c0.756-0.041,1.517-0.062,2.275-0.062l0.122-0.144c-0.104-2.459-0.167-4.916-0.167-7.376c1.887,2.46,3.73,4.938,5.534,7.458
	l0.186,0.123c0.882-0.041,1.762-0.062,2.644-0.062L500,117.55z"/>
</svg>